<?xml version='1.0' encoding='utf-8'?>
<!DOCTYPE svg PUBLIC '-//W3C//DTD SVG 1.1//EN' 'http://www.w3.org/Graphics/SVG/1.1/DTD/svg11.dtd'>
<svg version="1.1" xmlns="http://www.w3.org/2000/svg" viewBox="0 0 512 512" xmlns:xlink="http://www.w3.org/1999/xlink" enable-background="new 0 0 512 512">
  <g>
    <path d="m495.7,135.7l-79.4-87.4c-7.7-8.5-22.5-8.5-30.2,0l-49,53.9v-70.8c0-11.3-9.1-20.4-20.4-20.4h-160.5c-5.2,0-10.2,2-14,5.5l-124.8,117c-4.1,3.9-6.4,9.3-6.4,14.9v332.2c0,11.3 9.1,20.4 20.4,20.4h285.2c11.3,0 20.4-9.1 20.4-20.4v-141.5c0-0.5 0-0.9-0.1-1.4l158.7-174.6c7.2-7.7 7.2-19.6 0.1-27.4zm-359.9-57.2v58h-61.8l61.8-58zm160.4,381.7h-244.4v-282.9h104.4c11.3,0 20.4-9.1 20.4-20.4v-105.1h119.6v95.3l-118.9,130.8c-2.6,2.9-4.4,6.5-5,10.3l-18.5,109.8c-1.1,6.7 1.1,13.6 6.1,18.2 7.7,7.2 17.1,5.4 18.6,5.1l97.9-22.4c8.7-0.8 19.8-16.4 19.8-16.4v77.7zm-35.2-99.6l-61.9,14.1 12.4-73.7 189.6-208.6 51.8,57-191.9,211.2z"/>
  </g>
</svg>
